<?xml version="1.0" encoding="UTF-8"?>
<svg version="1.1" xmlns="http://www.w3.org/2000/svg" width="512" height="512">
<path d="M0 0 C8.27154006 5.87169707 13.58128105 12.72320161 15.54638672 22.80249023 C15.98142291 25.86905054 16.11429088 28.74189717 16.09765625 31.8359375 C16.09282227 33.43115234 16.09282227 33.43115234 16.08789062 35.05859375 C16.07532227 36.70021484 16.07532227 36.70021484 16.0625 38.375 C16.05798828 39.49261719 16.05347656 40.61023437 16.04882812 41.76171875 C16.03709244 44.50786804 16.02067363 47.25390586 16 50 C17.01490824 49.99631283 18.02981647 49.99262566 19.07547951 49.98882675 C43.76265453 49.90005542 68.44980887 49.83430976 93.13710976 49.79275131 C105.07567642 49.77212013 117.0141377 49.74398876 128.95263672 49.69824219 C139.35740649 49.65839162 149.76209994 49.63257124 160.16694391 49.62364602 C165.67700102 49.61842829 171.18683976 49.60615292 176.69682693 49.57707977 C181.8825887 49.54993895 187.06804206 49.54155238 192.2538681 49.54756927 C194.15740764 49.54646845 196.06095744 49.53850671 197.96443558 49.5231781 C200.56387837 49.50327097 203.16215737 49.50806325 205.7616272 49.51898193 C206.51455791 49.50733057 207.26748863 49.4956792 208.04323542 49.48367476 C213.16682618 49.54183021 216.03841563 50.80003207 220 54 C223.64679098 58.14979663 224.12410086 61.5593237 224.09765625 66.98046875 C224.09443359 68.14384766 224.09121094 69.30722656 224.08789062 70.50585938 C224.07951172 71.72080078 224.07113281 72.93574219 224.0625 74.1875 C224.05798828 75.41404297 224.05347656 76.64058594 224.04882812 77.90429688 C224.03703065 80.93624668 224.02056921 83.96809906 224 87 C225.07314453 86.9685791 225.07314453 86.9685791 226.16796875 86.93652344 C229.44516652 86.85279167 232.72213841 86.80115949 236 86.75 C237.12535156 86.71648437 238.25070312 86.68296875 239.41015625 86.6484375 C246.45614546 86.56602827 251.04736434 87.12904629 257 91 C261.50119841 96.53993651 262.12413037 100.65008232 262.13142776 107.62588215 C262.1334804 108.29361958 262.13553303 108.96135702 262.13764787 109.64932892 C262.14332235 111.89679699 262.14186007 114.14420387 262.14044189 116.39167786 C262.14302527 118.01531329 262.14603835 119.63894809 262.1494453 121.262582 C262.15752171 125.73225358 262.15930522 130.2019091 262.16004276 134.67158711 C262.16189218 139.48901433 262.16943891 144.30643319 262.17617798 149.12385559 C262.18976594 159.66094163 262.19578662 170.19802386 262.20018864 180.7351172 C262.20295003 187.31229562 262.20718717 193.88947258 262.21169281 200.46665001 C262.22388561 218.67093342 262.23418521 236.87521565 262.2375679 255.07950306 C262.23778747 256.24484047 262.23800703 257.41017789 262.23823325 258.61082856 C262.23845153 259.77897745 262.23866981 260.94712634 262.2388947 262.15067369 C262.23933817 264.51784821 262.23978473 266.88502274 262.24023438 269.25219727 C262.2404558 270.42640131 262.24067723 271.60060535 262.24090537 272.81039133 C262.24485462 291.84287964 262.26231244 310.87532969 262.2855939 329.90780322 C262.30929443 349.44022952 262.32176914 368.97263662 262.32293582 388.50507754 C262.32385326 399.47505857 262.32962303 410.44498974 262.34775543 421.41495705 C262.36313884 430.75480333 262.36828726 440.09458435 262.36001733 449.43444089 C262.35610471 454.20083725 262.35707026 458.9671021 262.37107468 463.73348236 C262.38377674 468.09644656 262.38264869 472.45917993 262.37048396 476.82214364 C262.36852056 478.40087522 262.37163502 479.97962295 262.38032833 481.55833182 C262.39139963 483.70469948 262.38394797 485.85024942 262.3719368 487.99659443 C262.37253389 489.18864658 262.37313097 490.38069872 262.37374616 491.60887367 C261.79436407 496.86580496 260.01474144 501.73000863 256.08390141 505.39072227 C251.12018373 509.28217124 245.72018927 508.82563413 239.65757751 508.7484436 C238.41443002 508.75639242 237.17128252 508.76434123 235.89046389 508.77253091 C232.45106285 508.78842421 229.01366326 508.77748495 225.57442605 508.75502992 C221.86133466 508.73731549 218.14837761 508.75424148 214.43528748 508.76675415 C207.16625545 508.78571633 199.89762091 508.77254338 192.62861841 508.74822827 C184.16302469 508.72096674 175.69752531 508.72426582 167.23189885 508.72849493 C152.12741806 508.73487258 137.023126 508.71155098 121.91870117 508.67236328 C107.26271823 508.63434905 92.60695645 508.62019017 77.95092773 508.63134766 C61.98920239 508.64346323 46.02757427 508.6431097 30.06585699 508.62037599 C28.36391263 508.61796142 26.66196825 508.61554945 24.96002388 508.61314011 C24.12264355 508.61193303 23.28526321 508.61072595 22.42250771 508.6094823 C16.52165531 508.60172405 10.6208391 508.60251117 4.71998405 508.6063118 C-2.47049359 508.61055598 -9.66077757 508.60010555 -16.85120065 508.57108469 C-20.51983639 508.55659746 -24.18819008 508.54844171 -27.85684967 508.55757141 C-31.83294307 508.56722552 -35.80852352 508.54589455 -39.78456116 508.52139282 C-40.94515755 508.52895147 -42.10575395 508.53651012 -43.30151993 508.54429781 C-49.50704972 508.47643269 -53.29701187 508.19563189 -58 504 C-61.64679098 499.85020337 -62.12410086 496.4406763 -62.09765625 491.01953125 C-62.09443359 489.85615234 -62.09121094 488.69277344 -62.08789062 487.49414062 C-62.07951172 486.27919922 -62.07113281 485.06425781 -62.0625 483.8125 C-62.05798828 482.58595703 -62.05347656 481.35941406 -62.04882812 480.09570312 C-62.03703065 477.06375332 -62.02056921 474.03190094 -62 471 C-62.75619629 471.01571045 -63.51239258 471.0314209 -64.29150391 471.04760742 C-67.73592576 471.11018047 -71.18022774 471.14906205 -74.625 471.1875 C-76.40970703 471.22520508 -76.40970703 471.22520508 -78.23046875 471.26367188 C-89.26288954 471.35612233 -89.26288954 471.35612233 -94 468 C-99.12388997 462.73377975 -100.24924342 457.31614273 -100.25447559 450.12802219 C-100.25768207 449.45797707 -100.26088855 448.78793195 -100.26419219 448.09758243 C-100.27248802 445.85423834 -100.26656947 443.61116153 -100.26069641 441.36781311 C-100.26371728 439.7424505 -100.26760644 438.11708931 -100.27228898 436.49173063 C-100.28258592 432.02655646 -100.28038284 427.56146244 -100.27610838 423.09628165 C-100.27364426 418.28024846 -100.2826514 413.46423472 -100.29014587 408.64820862 C-100.30290338 399.21379551 -100.30468527 389.77941084 -100.30234561 380.34499056 C-100.30056356 372.67785565 -100.30230967 365.01072938 -100.30657005 357.3435955 C-100.30716524 356.25293718 -100.30776043 355.16227885 -100.30837366 354.03857027 C-100.30958539 351.82300159 -100.31079952 349.60743291 -100.31201603 347.39186423 C-100.32289551 326.6086234 -100.32072708 305.82539879 -100.31463119 285.04215705 C-100.30946102 266.02272618 -100.3207194 247.00334651 -100.33972941 227.98392577 C-100.35909381 208.46047292 -100.3673663 188.93704431 -100.36360615 169.41358179 C-100.36169207 158.45034153 -100.36420189 147.48714486 -100.37832069 136.52391243 C-100.39021762 127.19142936 -100.39165833 117.85901672 -100.37953053 108.52653272 C-100.37363012 103.76417639 -100.37257446 99.00194898 -100.38453293 94.23960114 C-100.39535195 89.88041187 -100.39233599 85.52145979 -100.37827124 81.1622818 C-100.37561332 79.58495821 -100.37802508 78.00761626 -100.38600711 76.43031061 C-100.39610632 74.28586052 -100.38769796 72.14223603 -100.37473011 69.99781895 C-100.37478513 68.80685094 -100.37484014 67.61588294 -100.37489682 66.388825 C-99.86868721 61.81301723 -98.57017496 57.78192883 -95.46484375 54.2578125 C-90.11723752 50.29155724 -87.04432954 49.86114719 -80.4921875 49.90234375 C-79.23125778 49.90446617 -79.23125778 49.90446617 -77.94485474 49.90663147 C-75.25486725 49.91223763 -72.56496241 49.92479114 -69.875 49.9375 C-68.05338662 49.94251421 -66.23177193 49.94707725 -64.41015625 49.95117188 C-59.94007223 49.96220906 -55.47005014 49.9794778 -51 50 C-51.02094727 49.17387207 -51.04189453 48.34774414 -51.06347656 47.49658203 C-51.13230274 44.38415779 -51.18211242 41.2721258 -51.21972656 38.15917969 C-51.24935477 36.16835522 -51.30022326 34.17788292 -51.3515625 32.1875 C-51.46933976 20.52755098 -49.30661096 12.51772934 -41.22265625 3.98046875 C-30.42874267 -5.63730662 -12.46593262 -7.80439098 0 0 Z M-33.2109375 19.84375 C-36.16503126 25.28629223 -35.42051839 31.42672684 -35.25 37.4375 C-35.23195313 38.64599609 -35.21390625 39.85449219 -35.1953125 41.09960938 C-35.14839357 44.06723184 -35.08275602 47.03319661 -35 50 C-32.03 50 -29.06 50 -26 50 C-25.98541748 49.34926514 -25.97083496 48.69853027 -25.95581055 48.02807617 C-25.88135451 45.08061694 -25.78468734 42.13429358 -25.6875 39.1875 C-25.65366211 37.65125977 -25.65366211 37.65125977 -25.61914062 36.08398438 C-25.58369141 35.10107422 -25.54824219 34.11816406 -25.51171875 33.10546875 C-25.48553467 32.19949951 -25.45935059 31.29353027 -25.43237305 30.36010742 C-24.9254288 27.59295327 -24.2143157 26.68327456 -22 25 C-20.0625 24.56640625 -20.0625 24.56640625 -18 24.5625 C-17.319375 24.54316406 -16.63875 24.52382813 -15.9375 24.50390625 C-13.14315982 25.21939255 -12.49596779 26.58196313 -11 29 C-10.56762695 31.38183594 -10.56762695 31.38183594 -10.48828125 33.984375 C-10.43510742 35.38623047 -10.43510742 35.38623047 -10.38085938 36.81640625 C-10.35830078 37.78449219 -10.33574219 38.75257812 -10.3125 39.75 C-10.26125977 41.22533203 -10.26125977 41.22533203 -10.20898438 42.73046875 C-10.12665691 45.15324858 -10.06164775 47.5766058 -10 50 C-7.03 50 -4.06 50 -1 50 C-0.88320048 45.81273706 -0.81254673 41.62589699 -0.75 37.4375 C-0.71648437 36.25607422 -0.68296875 35.07464844 -0.6484375 33.85742188 C-0.5715274 26.99319526 -0.72673825 22.4963508 -5 17 C-8.70595421 13.3183206 -12.81032797 11.6704121 -18 11.375 C-24.80588446 11.76241188 -29.0934418 14.54774846 -33.2109375 19.84375 Z " fill="#ECF1F3" transform="translate(175,4)"/>
<path d="M0 0 C3.99974981 -0.11710979 7.99905281 -0.18755489 12 -0.25 C13.12535156 -0.28351563 14.25070312 -0.31703125 15.41015625 -0.3515625 C22.45614546 -0.43397173 27.04736434 0.12904629 33 4 C37.50119841 9.53993651 38.12413037 13.65008232 38.13142776 20.62588215 C38.1334804 21.29361958 38.13553303 21.96135702 38.13764787 22.64932892 C38.14332235 24.89679699 38.14186007 27.14420387 38.14044189 29.39167786 C38.14302527 31.01531329 38.14603835 32.63894809 38.1494453 34.262582 C38.15752171 38.73225358 38.15930522 43.2019091 38.16004276 47.67158711 C38.16189218 52.48901433 38.16943891 57.30643319 38.17617798 62.12385559 C38.18976594 72.66094163 38.19578662 83.19802386 38.20018864 93.7351172 C38.20295003 100.31229562 38.20718717 106.88947258 38.21169281 113.46665001 C38.22388561 131.67093342 38.23418521 149.87521565 38.2375679 168.07950306 C38.23778747 169.24484047 38.23800703 170.41017789 38.23823325 171.61082856 C38.23845153 172.77897745 38.23866981 173.94712634 38.2388947 175.15067369 C38.23933817 177.51784821 38.23978473 179.88502274 38.24023438 182.25219727 C38.2404558 183.42640131 38.24067723 184.60060535 38.24090537 185.81039133 C38.24485462 204.84287964 38.26231244 223.87532969 38.2855939 242.90780322 C38.30929443 262.44022952 38.32176914 281.97263662 38.32293582 301.50507754 C38.32385326 312.47505857 38.32962303 323.44498974 38.34775543 334.41495705 C38.36313884 343.75480333 38.36828726 353.09458435 38.36001733 362.43444089 C38.35610471 367.20083725 38.35707026 371.9671021 38.37107468 376.73348236 C38.38377674 381.09644656 38.38264869 385.45917993 38.37048396 389.82214364 C38.36852056 391.40087522 38.37163502 392.97962295 38.38032833 394.55833182 C38.39139963 396.70469948 38.38394797 398.85024942 38.3719368 400.99659443 C38.37253389 402.18864658 38.37313097 403.38069872 38.37374616 404.60887367 C37.79436407 409.86580496 36.01474144 414.73000863 32.08390141 418.39072227 C27.12018373 422.28217124 21.72018927 421.82563413 15.65757751 421.7484436 C14.41443002 421.75639242 13.17128252 421.76434123 11.89046389 421.77253091 C8.45106285 421.78842421 5.01366326 421.77748495 1.57442605 421.75502992 C-2.13866534 421.73731549 -5.85162239 421.75424148 -9.56471252 421.76675415 C-16.83374455 421.78571633 -24.10237909 421.77254338 -31.37138159 421.74822827 C-39.83697531 421.72096674 -48.30247469 421.72426582 -56.76810115 421.72849493 C-71.87258194 421.73487258 -86.976874 421.71155098 -102.08129883 421.67236328 C-116.73728177 421.63434905 -131.39304355 421.62019017 -146.04907227 421.63134766 C-162.01079761 421.64346323 -177.97242573 421.6431097 -193.93414301 421.62037599 C-195.63608737 421.61796142 -197.33803175 421.61554945 -199.03997612 421.61314011 C-200.29604662 421.61132949 -200.29604662 421.61132949 -201.57749229 421.6094823 C-207.47834469 421.60172405 -213.3791609 421.60251117 -219.28001595 421.6063118 C-226.47049359 421.61055598 -233.66077757 421.60010555 -240.85120065 421.57108469 C-244.51983639 421.55659746 -248.18819008 421.54844171 -251.85684967 421.55757141 C-255.83294307 421.56722552 -259.80852352 421.54589455 -263.78456116 421.52139282 C-264.94515755 421.52895147 -266.10575395 421.53651012 -267.30151993 421.54429781 C-273.50704972 421.47643269 -277.29701187 421.19563189 -282 417 C-285.64679098 412.85020337 -286.12410086 409.4406763 -286.09765625 404.01953125 C-286.09443359 402.85615234 -286.09121094 401.69277344 -286.08789062 400.49414062 C-286.07951172 399.27919922 -286.07113281 398.06425781 -286.0625 396.8125 C-286.05798828 395.58595703 -286.05347656 394.35941406 -286.04882812 393.09570312 C-286.03703065 390.06375332 -286.02056921 387.03190094 -286 384 C-285.42537805 383.99940291 -284.85075609 383.99880582 -284.25872135 383.99819064 C-250.19667309 383.96229127 -216.1347272 383.90564401 -182.07276285 383.82207905 C-177.98226543 383.81206167 -173.89176762 383.80221753 -169.80126953 383.79248047 C-168.98693018 383.7905391 -168.17259083 383.78859772 -167.33357453 383.78659752 C-154.15050242 383.75558231 -140.96744771 383.73859821 -127.78434598 383.72680578 C-114.25574925 383.71439173 -100.72724381 383.68688462 -87.19870472 383.64538693 C-78.85185758 383.62025875 -70.50516188 383.60688222 -62.15827638 383.60857043 C-56.43333217 383.6086002 -50.70854214 383.59396021 -44.98365802 383.56783572 C-41.68136752 383.55319792 -38.37945647 383.54715511 -35.07713127 383.55419731 C-31.49313986 383.56082246 -27.91007046 383.54295005 -24.32617188 383.51898193 C-23.28724572 383.52674235 -22.24831957 383.53450277 -21.1779108 383.54249835 C-15.07428341 383.47023425 -9.86318158 382.9718336 -5 379 C0.63566325 372.71562 -0.43599114 363.84691353 -0.48101807 355.95336914 C-0.47513837 354.41615633 -0.467509 352.8789494 -0.458287 351.34175301 C-0.43805738 347.12974025 -0.44257259 342.9180649 -0.45119452 338.70602584 C-0.45614319 334.15939155 -0.4380497 329.61284158 -0.42277527 325.0662384 C-0.39946886 317.19296328 -0.39071447 309.31978024 -0.39188385 301.44647217 C-0.39355347 290.06305599 -0.37321448 278.67976253 -0.34752855 267.29637909 C-0.30645002 248.82698657 -0.28313525 230.35761614 -0.27099609 211.88818359 C-0.25916699 193.94838336 -0.23896904 176.00862469 -0.20751953 158.06884766 C-0.20558343 156.96277408 -0.20364733 155.85670051 -0.20165256 154.71710956 C-0.19188795 149.16818395 -0.18195884 143.61925865 -0.17194796 138.07033348 C-0.08912927 92.04690927 -0.03514136 46.02348365 0 0 Z " fill="#A3AFC5" transform="translate(399,91)"/>
<path d="M0 0 C0.8988281 -0.00467997 1.79765619 -0.00935994 2.7237215 -0.01418173 C5.74784739 -0.02618677 8.77152472 -0.01665299 11.7956543 -0.00723267 C13.95869207 -0.01129592 16.12172777 -0.0166364 18.28475952 -0.02316284 C24.16894467 -0.03687152 30.0529725 -0.03152312 35.93716049 -0.02202559 C42.08571558 -0.01444737 48.2342569 -0.02146947 54.3828125 -0.02618408 C64.70957872 -0.031647 75.03628064 -0.02443594 85.36303711 -0.01016235 C97.31402775 0.00616515 109.26486487 0.00087702 121.21585178 -0.01564157 C131.46387073 -0.02924115 141.71184338 -0.03118358 151.95986843 -0.02332556 C158.08619644 -0.01864064 164.21245222 -0.01804667 170.33877563 -0.02793503 C176.09746131 -0.03658018 181.85594843 -0.03062767 187.61461258 -0.01325226 C189.73225194 -0.00927429 191.84990792 -0.01044371 193.96754074 -0.01704025 C196.85017066 -0.02519412 199.73215755 -0.01500891 202.61474609 0 C203.45996984 -0.00669217 204.30519358 -0.01338433 205.17603016 -0.02027929 C210.86854041 0.03752164 210.86854041 0.03752164 213.02085018 1.7219137 C215.04171021 4.32791637 214.6890506 6.66605257 214.69555664 9.91610718 C214.70344208 10.90440018 214.70344208 10.90440018 214.71148682 11.91265869 C214.72468717 14.08983083 214.71594931 16.2662714 214.70581055 18.44345093 C214.70783129 19.95655457 214.71074273 21.46965726 214.71450806 22.98275757 C214.71893143 26.15366897 214.71250016 29.32432681 214.69848633 32.49520874 C214.68139415 36.56090985 214.6912353 40.62601686 214.70920372 44.69169617 C214.72004136 47.81609579 214.71659537 50.94035444 214.70882034 54.0647583 C214.70681827 55.56388418 214.70927789 57.06302283 214.716259 58.56213379 C214.72387351 60.65703259 214.71227094 62.75096771 214.69555664 64.84579468 C214.69316986 66.03809692 214.69078308 67.23039917 214.68832397 68.45883179 C214.25924521 71.7501199 213.84803233 72.39263755 211.30737305 74.38095093 C208.34029457 74.67599018 205.58304521 74.78540374 202.61474609 74.76190186 C201.715918 74.76658183 200.8170899 74.7712618 199.89102459 74.77608359 C196.8668987 74.78808862 193.84322138 74.77855485 190.8190918 74.76913452 C188.65605402 74.77319777 186.49301832 74.77853826 184.32998657 74.7850647 C178.44580143 74.79877338 172.56177359 74.79342497 166.6775856 74.78392744 C160.52903052 74.77634923 154.38048919 74.78337133 148.23193359 74.78808594 C137.90516737 74.79354886 127.57846545 74.7863378 117.25170898 74.77206421 C105.30071834 74.75573671 93.34988123 74.76102484 81.39889431 74.77754343 C71.15087536 74.791143 60.90290272 74.79308544 50.65487766 74.78522742 C44.52854965 74.78054249 38.40229387 74.77994853 32.27597046 74.78983688 C26.51728478 74.79848203 20.75879767 74.79252952 15.00013351 74.77515411 C12.88249415 74.77117614 10.76483818 74.77234557 8.64720535 74.77894211 C5.76457543 74.78709598 2.88258854 74.77691077 0 74.76190186 C-0.84522374 74.76859402 -1.69044748 74.77528619 -2.56128407 74.78218114 C-8.25379431 74.72438022 -8.25379431 74.72438022 -10.40610409 73.03998816 C-12.42696411 70.43398549 -12.07430451 68.09584929 -12.08081055 64.84579468 C-12.0860675 64.18693268 -12.09132446 63.52807068 -12.09674072 62.84924316 C-12.10994108 60.67207103 -12.10120321 58.49563046 -12.09106445 56.31845093 C-12.0930852 54.80534729 -12.09599664 53.29224459 -12.09976196 51.77914429 C-12.10418534 48.60823289 -12.09775407 45.43757504 -12.08374023 42.26669312 C-12.06664805 38.20099201 -12.0764892 34.13588499 -12.09445763 30.07020569 C-12.10529527 26.94580606 -12.10184928 23.82154742 -12.09407425 20.69714355 C-12.09207217 19.19801768 -12.0945318 17.69887902 -12.10151291 16.19976807 C-12.10912742 14.10486926 -12.09752485 12.01093415 -12.08081055 9.91610718 C-12.07842377 8.72380493 -12.07603699 7.53150269 -12.07357788 6.30307007 C-11.16153885 -0.6928092 -5.91121854 -0.04680282 0 0 Z " fill="#A8DAF8" transform="translate(132.692626953125,244.61904907226563)"/>
<path d="M0 0 C5.94 0 11.88 0 18 0 C18.09120589 49.70893969 18.16201571 99.41786877 18.20426132 149.12687571 C18.20926428 154.99246155 18.21444156 160.85804722 18.21972656 166.72363281 C18.2207758 167.89138933 18.22182505 169.05914584 18.22290608 170.26228891 C18.24032205 189.18255096 18.27186631 208.1027645 18.30861118 227.02299775 C18.34598742 246.42985666 18.36822883 265.83669013 18.37635398 285.24358356 C18.38184863 297.22338832 18.39921711 309.203056 18.43166587 321.18281858 C18.4527728 329.39235439 18.45920871 337.60181911 18.45400551 345.8113801 C18.45143778 350.5513412 18.45543635 355.29106238 18.4768219 360.03098106 C18.49625082 364.36881417 18.49729392 368.70624542 18.48359558 373.04409681 C18.48190193 374.61486073 18.48700723 376.18564947 18.49953273 377.75636436 C18.51555916 379.88984263 18.50695228 382.02186566 18.49219131 384.15532112 C18.4937102 385.34080799 18.49522908 386.52629486 18.49679399 387.74770558 C17.71462633 392.86821747 15.19483276 395.94740924 11.375 399.3125 C7.98647953 401.72013297 6.2866287 402.12480215 2.17801476 402.12304783 C0.64108925 402.1260344 0.64108925 402.1260344 -0.92688525 402.12908131 C-2.06110741 402.12616847 -3.19532958 402.12325563 -4.36392212 402.12025452 C-6.16120666 402.12153615 -6.16120666 402.12153615 -7.99479997 402.12284368 C-11.3309641 402.1242104 -14.66707011 402.12106846 -18.00322723 402.11606562 C-21.59695436 402.11176016 -25.19067959 402.11320761 -28.78440857 402.1139679 C-35.01423191 402.11449307 -41.2440448 402.11134695 -47.47386551 402.10573006 C-56.48121745 402.09761418 -65.48856431 402.09499975 -74.49591951 402.09374207 C-89.10861067 402.09155169 -103.72129625 402.08489197 -118.33398438 402.07543945 C-132.53157524 402.06626498 -146.72916459 402.05918432 -160.92675781 402.05493164 C-162.2387542 402.05453756 -162.2387542 402.05453756 -163.57725556 402.05413551 C-167.96504716 402.0528305 -172.35283877 402.05156679 -176.74063039 402.05032361 C-213.16042423 402.03995143 -249.58021159 402.02225932 -286 402 C-286 396.06 -286 390.12 -286 384 C-284.60040543 383.99853344 -283.20081085 383.99706688 -281.75880432 383.99555588 C-248.53006362 383.95984853 -215.30142249 383.90359964 -182.07276285 383.82207905 C-177.98226543 383.81206167 -173.89176762 383.80221753 -169.80126953 383.79248047 C-168.98693018 383.7905391 -168.17259083 383.78859772 -167.33357453 383.78659752 C-154.15050242 383.75558231 -140.96744771 383.73859821 -127.78434598 383.72680578 C-114.25574925 383.71439173 -100.72724381 383.68688462 -87.19870472 383.64538693 C-78.85185758 383.62025875 -70.50516188 383.60688222 -62.15827638 383.60857043 C-56.43333217 383.6086002 -50.70854214 383.59396021 -44.98365802 383.56783572 C-41.68136752 383.55319792 -38.37945647 383.54715511 -35.07713127 383.55419731 C-31.49313986 383.56082246 -27.91007046 383.54295005 -24.32617188 383.51898193 C-23.28724572 383.52674235 -22.24831957 383.53450277 -21.1779108 383.54249835 C-15.07428341 383.47023425 -9.86318158 382.9718336 -5 379 C0.63566325 372.71562 -0.43599114 363.84691353 -0.48101807 355.95336914 C-0.47513837 354.41615633 -0.467509 352.8789494 -0.458287 351.34175301 C-0.43805738 347.12974025 -0.44257259 342.9180649 -0.45119452 338.70602584 C-0.45614319 334.15939155 -0.4380497 329.61284158 -0.42277527 325.0662384 C-0.39946886 317.19296328 -0.39071447 309.31978024 -0.39188385 301.44647217 C-0.39355347 290.06305599 -0.37321448 278.67976253 -0.34752855 267.29637909 C-0.30645002 248.82698657 -0.28313525 230.35761614 -0.27099609 211.88818359 C-0.25916699 193.94838336 -0.23896904 176.00862469 -0.20751953 158.06884766 C-0.20558343 156.96277408 -0.20364733 155.85670051 -0.20165256 154.71710956 C-0.19188795 149.16818395 -0.18195884 143.61925865 -0.17194796 138.07033348 C-0.08912927 92.04690881 -0.0354374 46.02348371 0 0 Z " fill="#929DB1" transform="translate(399,91)"/>
<path d="M0 0 C0.8988281 -0.00397441 1.79765619 -0.00794881 2.7237215 -0.01204365 C5.74785803 -0.02169951 8.77153059 -0.00982865 11.7956543 0.00190735 C13.95869115 -0.00051953 16.12172689 -0.00423783 18.28475952 -0.00915527 C24.16895276 -0.01858211 30.05298018 -0.00912374 35.93716049 0.00417686 C42.08571151 0.01546933 48.2342541 0.01138556 54.3828125 0.00942993 C64.70958169 0.00854626 75.03628533 0.0196427 85.36303711 0.03804016 C97.31400237 0.05920888 109.26487157 0.06271809 121.21585178 0.0564782 C132.69708593 0.05078976 144.17828613 0.05642408 155.65951538 0.06765175 C160.5526085 0.07230462 165.4456809 0.07316861 170.33877563 0.0710659 C176.09742815 0.06918662 181.85598245 0.07725912 187.61461258 0.0931263 C189.73225117 0.0973803 191.8498997 0.09821225 193.96754074 0.0954361 C196.85005146 0.09222969 199.73226586 0.10125712 202.61474609 0.11352539 C203.45996984 0.10974607 204.30519358 0.10596674 205.17603016 0.10207289 C209.07168593 0.13156167 210.99096579 0.16328363 214.30737305 2.3742218 C214.69555664 5.49116516 214.69555664 5.49116516 214.70581055 9.46406555 C214.71011581 10.51455833 214.71011581 10.51455833 214.71450806 11.58627319 C214.71655044 13.06825061 214.71100829 14.55025487 214.69848633 16.03218079 C214.68245729 18.29980422 214.69831471 20.56563894 214.7175293 22.83320618 C214.71554642 24.27266324 214.71170183 25.71211918 214.70581055 27.15156555 C214.70242676 28.46375061 214.69904297 29.77593567 214.69555664 31.12788391 C214.30737305 34.3742218 214.30737305 34.3742218 213.02039814 36.05352271 C210.01649747 38.36945428 206.25856512 37.78402312 202.61474609 37.75517273 C201.715918 37.7598527 200.8170899 37.76453267 199.89102459 37.76935446 C196.8668987 37.7813595 193.84322138 37.77182572 190.8190918 37.7624054 C188.65605402 37.76646865 186.49301832 37.77180913 184.32998657 37.77833557 C178.44580143 37.79204425 172.56177359 37.78669585 166.6775856 37.77719831 C160.52903052 37.7696201 154.38048919 37.7766422 148.23193359 37.78135681 C137.90516737 37.78681973 127.57846545 37.77960867 117.25170898 37.76533508 C105.30071834 37.74900758 93.34988123 37.75429571 81.39889431 37.7708143 C71.15087536 37.78441388 60.90290272 37.78635631 50.65487766 37.77849829 C44.52854965 37.77381337 38.40229387 37.7732194 32.27597046 37.78310776 C26.51728478 37.79175291 20.75879767 37.7858004 15.00013351 37.76842499 C12.88249415 37.76444702 10.76483818 37.76561644 8.64720535 37.77221298 C5.76457543 37.78036685 2.88258854 37.77018164 0 37.75517273 C-0.84522374 37.76186489 -1.69044748 37.76855706 -2.56128407 37.77545202 C-8.24937904 37.71769592 -8.24937904 37.71769592 -10.40565205 36.04679358 C-12.48542513 33.34388946 -12.08210135 30.75340319 -12.09106445 27.4054718 C-12.09393463 26.72875427 -12.09680481 26.05203674 -12.09976196 25.35481262 C-12.10180093 23.92588971 -12.09628264 22.49693878 -12.08374023 21.06806946 C-12.06768206 18.88172456 -12.08359229 16.69722801 -12.1027832 14.51094055 C-12.10080074 13.12161356 -12.09695699 11.73228771 -12.09106445 10.3429718 C-12.08768066 9.07904602 -12.08429688 7.81512024 -12.08081055 6.51289368 C-11.69262695 3.3742218 -11.69262695 3.3742218 -10.40565205 1.70147544 C-7.40452949 -0.62379746 -3.64586871 -0.03180894 0 0 Z " fill="#FEC51F" transform="translate(132.692626953125,171.6257781982422)"/>
<path d="M0 0 C8.27154006 5.87169707 13.58128105 12.72320161 15.54638672 22.80249023 C15.98142291 25.86905054 16.11429088 28.74189717 16.09765625 31.8359375 C16.09282227 33.43115234 16.09282227 33.43115234 16.08789062 35.05859375 C16.07532227 36.70021484 16.07532227 36.70021484 16.0625 38.375 C16.05798828 39.49261719 16.05347656 40.61023437 16.04882812 41.76171875 C16.03709258 44.50783566 16.01915866 47.25392485 16 50 C10.39 50 4.78 50 -1 50 C-1.02578125 48.20433594 -1.0515625 46.40867188 -1.078125 44.55859375 C-1.1344188 42.18487196 -1.19176584 39.81117498 -1.25 37.4375 C-1.26417969 36.25607422 -1.27835938 35.07464844 -1.29296875 33.85742188 C-1.48279453 27.08064139 -1.83343369 22.45441408 -6 17 C-10.77014043 13.27929047 -14.53648215 12.33682515 -20.5703125 12.62109375 C-25.79100681 13.43525347 -28.8979599 15.55732932 -32.1484375 19.8125 C-35.12103026 25.25562554 -34.67740812 31.38927658 -34.75 37.4375 C-34.79447266 39.25024414 -34.79447266 39.25024414 -34.83984375 41.09960938 C-34.91020413 44.06647208 -34.96307021 47.03256424 -35 50 C-32.03 50 -29.06 50 -26 50 C-26.02094727 49.35450195 -26.04189453 48.70900391 -26.06347656 48.04394531 C-26.14674205 45.11278932 -26.19869206 42.18188223 -26.25 39.25 C-26.30027344 37.72632812 -26.30027344 37.72632812 -26.3515625 36.171875 C-26.45013736 28.68018544 -26.45013736 28.68018544 -24.234375 25.33203125 C-21.92716925 23.95658167 -20.66539417 23.43229415 -18 23.4375 C-17.34 23.41558594 -16.68 23.39367187 -16 23.37109375 C-12.7556992 24.39127427 -11.78393793 26.14450203 -10 29 C-9.48681506 32.03660822 -9.61696671 35.00457937 -9.734375 38.07421875 C-9.77167594 39.96793243 -9.80877487 41.86165011 -9.84570312 43.75537109 C-9.87253174 44.76581482 -9.89936035 45.77625854 -9.92700195 46.81732178 C-10.02846149 51.24090663 -10.04084042 55.6635778 -10.0592041 60.08816528 C-10.08470909 64.79782532 -10.14496539 69.50676933 -10.20751953 74.21606445 C-10.23611386 76.63688648 -10.25713169 79.05780856 -10.27099609 81.47875977 C-10.29241184 85.03448777 -10.33893709 88.5891302 -10.390625 92.14453125 C-10.39246796 93.75555473 -10.39246796 93.75555473 -10.39434814 95.39912415 C-10.54301413 103.03450419 -11.77970432 108.86444894 -17.375 114.3125 C-23.38541904 118.17634081 -27.84010228 120.06973005 -35 119 C-41.15923571 117.11520656 -45.50260675 113.35747183 -49 108 C-51.13652671 103.71804566 -51.29633063 99.75741511 -51.29052734 95.0637207 C-51.29724457 94.27926071 -51.30396179 93.49480072 -51.31088257 92.68656921 C-51.32983977 90.09957495 -51.33378611 87.51284062 -51.3359375 84.92578125 C-51.34236882 83.1184224 -51.34909743 81.31106458 -51.35610962 79.50370789 C-51.36807799 75.71509389 -51.37179108 71.92657102 -51.37060547 68.13793945 C-51.37040272 63.3039395 -51.39766089 58.47053037 -51.43214989 53.63667011 C-51.4544894 49.90208807 -51.4584408 46.16764638 -51.45738602 42.43300438 C-51.45973306 40.65216226 -51.46850561 38.87131575 -51.48405075 37.09053993 C-51.58844218 23.89239015 -50.70644154 13.99605508 -41.22265625 3.98046875 C-30.42874267 -5.63730662 -12.46593262 -7.80439098 0 0 Z " fill="#596E7B" transform="translate(175,4)"/>
<path d="M0 0 C1.28824698 0.00334608 1.28824698 0.00334608 2.60251915 0.00675976 C3.50780551 0.00519977 4.41309186 0.00363978 5.34581113 0.00203252 C8.40365616 -0.00198165 11.46145225 0.00121379 14.51929772 0.00434887 C16.70174227 0.002995 18.8841866 0.00121515 21.06663048 -0.00096118 C27.01286972 -0.00553769 32.9590917 -0.00374493 38.90533125 -0.0005821 C45.11528712 0.00194103 51.32524146 -0.00039596 57.53519738 -0.00196826 C68.63730787 -0.00390726 79.73941154 -0.00078928 90.84152068 0.00429107 C100.91250236 0.00875691 110.9834725 0.00798504 121.05445397 0.00337231 C132.7388253 -0.00197685 144.42318989 -0.0039723 156.1075623 -0.00101542 C162.29649559 0.00054649 168.48542094 0.00074351 174.67435372 -0.00255191 C180.49368501 -0.00543375 186.31299446 -0.00344913 192.13232338 0.00234234 C194.27253984 0.00366838 196.41275813 0.00327846 198.55297387 0.00107968 C201.46616118 -0.001638 204.37927779 0.001757 207.29246056 0.00675976 C208.14683044 0.00452904 209.00120032 0.00229832 209.88146019 0 C213.20095543 0.01111691 215.90295253 0.07656975 219.0744735 1.13374341 C219.1554458 3.57190925 219.21494322 6.00738724 219.2619735 8.44624341 C219.28711022 9.13653637 219.31224694 9.82682934 219.33814538 10.53804028 C219.41273755 15.68490012 219.41273755 15.68490012 217.79344952 17.83353686 C214.77406202 20.11735428 211.02236103 19.54351856 207.38184655 19.51469433 C206.48301845 19.51937431 205.58419035 19.52405428 204.65812504 19.52887607 C201.63399916 19.5408811 198.61032183 19.53134732 195.58619225 19.521927 C193.42315447 19.52599025 191.26011877 19.53133074 189.09708703 19.53785717 C183.21290188 19.55156585 177.32887405 19.54621745 171.44468606 19.53671992 C165.29613097 19.52914171 159.14758964 19.5361638 152.99903405 19.54087842 C142.67226783 19.54634134 132.3455659 19.53913027 122.01880944 19.52485669 C110.0678188 19.50852919 98.11698168 19.51381731 86.16599476 19.5303359 C75.91797581 19.54393548 65.67000317 19.54587791 55.42197812 19.5380199 C49.2956501 19.53333497 43.16939433 19.532741 37.04307091 19.54262936 C31.28438524 19.55127451 25.52589812 19.545322 19.76723397 19.52794659 C17.64959461 19.52396862 15.53193863 19.52513805 13.41430581 19.53173459 C10.53167588 19.53988846 7.649689 19.52970325 4.76710045 19.51469433 C3.92187671 19.5213865 3.07665297 19.52807866 2.20581639 19.53497362 C-3.47264312 19.47731536 -3.47264312 19.47731536 -5.64230525 17.8313396 C-7.75449187 15.03709038 -7.27635382 11.86125183 -7.1755265 8.50874341 C-7.17037025 7.81522778 -7.165214 7.12171216 -7.1599015 6.40718091 C-7.05804763 -0.11146672 -6.40124685 0.02158217 0 0 Z " fill="#8CD2F6" transform="translate(127.92552649974823,299.8662565946579)"/>
<path d="M0 0 C0.84522374 0.00737428 1.69044748 0.01474857 2.56128407 0.02234632 C3.46011216 0.01837191 4.35894026 0.01439751 5.28500557 0.01030266 C8.3091421 0.00064681 11.33281465 0.01251767 14.35693836 0.02425367 C16.51997522 0.02182679 18.68301096 0.01810848 20.84604359 0.01319104 C26.73023682 0.00376421 32.61426424 0.01322258 38.49844456 0.02652317 C44.64699557 0.03781565 50.79553816 0.03373187 56.94409657 0.03177625 C67.27086576 0.03089258 77.59756939 0.04198902 87.92432117 0.06038648 C99.87528644 0.08155519 111.82615563 0.08506441 123.77713585 0.07882452 C135.25836999 0.07313607 146.73957019 0.07877039 158.22079945 0.08999807 C163.11389256 0.09465094 168.00696497 0.09551493 172.9000597 0.09341222 C178.65871222 0.09153294 184.41726652 0.09960544 190.17589664 0.11547261 C192.29353523 0.11972662 194.41118377 0.12055856 196.52882481 0.11778241 C199.41133553 0.11457601 202.29354992 0.12360344 205.17603016 0.13587171 C206.0212539 0.13209238 206.86647764 0.12831306 207.73731422 0.12441921 C211.63296999 0.15390799 213.55224986 0.18562995 216.86865711 2.39656812 C216.86865711 7.67656812 216.86865711 12.95656812 216.86865711 18.39656812 C142.28865711 18.72656812 67.70865711 19.05656812 -9.13134289 19.39656812 C-9.13134289 14.11656812 -9.13134289 8.83656812 -9.13134289 3.39656812 C-5.74631096 0.01153619 -4.58763299 0.04291013 0 0 Z " fill="#FED45D" transform="translate(130.13134288787842,171.6034318804741)"/>
<path d="M0 0 C1.43986267 -0.00569504 1.43986267 -0.00569504 2.90881348 -0.01150513 C6.07683141 -0.01890523 9.24392903 0.0024633 12.41186523 0.02490234 C14.61473991 0.02728701 16.81761665 0.02819204 19.02049255 0.02767944 C23.63472241 0.03080645 28.24864132 0.04736553 32.86279297 0.07421875 C38.78011464 0.10821816 44.697095 0.11584668 50.61450291 0.11432838 C55.16207645 0.11487195 59.70957525 0.12583669 64.25712395 0.14033127 C66.43923311 0.14669919 68.62135075 0.15063815 70.8034687 0.15211868 C73.85089708 0.15645055 76.89796209 0.17394883 79.9453125 0.1953125 C80.84879929 0.19440613 81.75228607 0.19349976 82.68315125 0.19256592 C83.51442535 0.20109589 84.34569946 0.20962585 85.2021637 0.21841431 C86.28198186 0.22344184 86.28198186 0.22344184 87.38361454 0.22857094 C89.79545911 0.53508627 91.35186285 1.1931061 93.40795898 2.48583984 C95.73545243 5.97708001 95.91095215 7.37806235 95.40795898 11.48583984 C93.54085988 13.78859541 92.05148157 15.16407855 89.40795898 16.48583984 C86.32245461 16.60559402 83.25887029 16.66427294 80.17236328 16.67871094 C79.21449921 16.68688843 78.25663513 16.69506592 77.26974487 16.70349121 C74.09056224 16.72836394 70.91142429 16.74486541 67.73217773 16.75927734 C66.64802896 16.76460102 65.5638802 16.7699247 64.44687843 16.7754097 C58.70938447 16.80214851 52.97191234 16.82152173 47.234375 16.8359375 C41.3023228 16.85259372 35.37082527 16.89737802 29.43898296 16.94830894 C24.88281094 16.98193119 20.32677142 16.99350942 15.77048683 16.99916458 C13.5835731 17.00589015 11.39666848 17.02114587 9.20987511 17.04505539 C6.15003347 17.07660345 3.09169922 17.07675907 0.03173828 17.06933594 C-0.87286636 17.08574127 -1.77747101 17.10214661 -2.70948792 17.11904907 C-7.13956636 17.07502014 -9.01816025 16.91943508 -12.65446472 14.17202759 C-14.59204102 11.48583984 -14.59204102 11.48583984 -15.21704102 7.92333984 C-14.59204102 4.48583984 -14.59204102 4.48583984 -12.65248108 2.30136108 C-8.37751963 -0.2346413 -4.88457501 -0.0608986 0 0 Z " fill="#A6B2C7" transform="translate(259.592041015625,420.51416015625)"/>
<path d="M0 0 C0.95844818 -0.0071553 1.91689636 -0.01431061 2.90438843 -0.02168274 C6.06231819 -0.03854718 9.21882399 -0.01918113 12.37670898 0.00219727 C14.57576108 0.00136843 16.77481312 -0.00109149 18.97386169 -0.00511169 C23.57797946 -0.00796808 28.18161031 0.00671771 32.78564453 0.03417969 C38.68621473 0.06828173 44.58591548 0.06223579 50.48652744 0.04351711 C55.02560164 0.03294809 59.56447358 0.04188383 64.10352898 0.05690193 C66.27922909 0.06208353 68.45495033 0.06160222 70.63064766 0.05535698 C73.67089388 0.04990533 76.70989559 0.07027845 79.75 0.09765625 C80.64832047 0.09113037 81.54664093 0.08460449 82.47218323 0.07788086 C86.61944658 0.14136912 88.77337565 0.29581731 92.36631775 2.53944397 C94.45324822 4.78490784 94.99421869 5.61460634 94.93530273 8.63110352 C94.95463867 9.62110352 94.95463867 9.62110352 94.97436523 10.63110352 C93.89945114 13.86849184 92.18563575 14.83710606 89.31030273 16.63110352 C86.11821379 17.21812976 82.9725497 17.17781985 79.73413086 17.14868164 C78.29667763 17.15919556 78.29667763 17.15919556 76.83018494 17.16992188 C73.66701153 17.18750639 70.50473502 17.17587715 67.34155273 17.16235352 C65.14107085 17.16504829 62.94059012 17.16893059 60.7401123 17.1739502 C56.13009292 17.17984588 51.52038371 17.17127975 46.91040039 17.15258789 C41.00197917 17.12979863 35.09428475 17.14292129 29.1858902 17.16687775 C24.64254279 17.18133362 20.09936762 17.17673063 15.55601501 17.16636658 C13.37751683 17.16369873 11.19900298 17.16697108 9.02052307 17.17628479 C5.97541904 17.18644659 2.93149107 17.1709537 -0.11352539 17.14868164 C-1.46336266 17.16082703 -1.46336266 17.16082703 -2.84046936 17.17321777 C-6.92200479 17.11792813 -9.14953417 16.95572464 -12.71398926 14.81359863 C-14.68969727 12.63110352 -14.68969727 12.63110352 -15.87719727 9.19360352 C-15.68969727 5.63110352 -15.68969727 5.63110352 -13.28358459 2.94789124 C-9.13210646 -0.25215481 -5.07084961 -0.06614932 0 0 Z " fill="#A6B2C7" transform="translate(128.689697265625,420.368896484375)"/>
<path d="M0 0 C0.97926956 -0.00686325 1.95853912 -0.0137265 2.96748352 -0.02079773 C6.20568321 -0.0391049 9.44340028 -0.03522291 12.68164062 -0.02954102 C14.93078774 -0.0341006 17.17993346 -0.0394055 19.42907715 -0.04542542 C24.14336812 -0.05436399 28.85748975 -0.05192443 33.57177734 -0.04199219 C39.61817809 -0.03049578 45.66399543 -0.05072097 51.71031952 -0.07990932 C56.35483523 -0.09823871 60.99921026 -0.09798545 65.64375305 -0.0922718 C67.87332478 -0.09211822 70.10290582 -0.0981929 72.33244324 -0.11056328 C75.44726382 -0.12541128 78.56099518 -0.11484165 81.67578125 -0.09765625 C82.59954056 -0.10732422 83.52329987 -0.11699219 84.47505188 -0.12695312 C90.68628128 -0.05505358 90.68628128 -0.05505358 93.91052246 2.21665955 C96.01508494 5.44183001 95.87533273 7.641958 95.33789062 11.40405273 C93.90953064 13.58946228 93.90953064 13.58946228 91.33789062 15.40405273 C88.12638154 16.00765985 84.95158843 15.960569 81.69165039 15.9375 C80.71398712 15.94611557 79.73632385 15.95473114 78.72903442 15.96360779 C75.49551967 15.98632046 72.26286789 15.9795187 69.02929688 15.97045898 C66.78254437 15.9756924 64.53579407 15.98196784 62.28904724 15.98924255 C57.57890489 15.99965674 52.86906445 15.99507078 48.15893555 15.98046875 C42.12146866 15.9632845 36.08495375 15.98676728 30.04759312 16.02195835 C25.40729967 16.04391474 20.76723459 16.04249498 16.12690544 16.03419304 C13.90094903 16.03337247 11.67497604 16.04025598 9.44906807 16.05496407 C6.33662477 16.07237566 3.22589942 16.05789428 0.11352539 16.03515625 C-0.80663864 16.04684845 -1.72680267 16.05854065 -2.67485046 16.07058716 C-7.14274844 16.00414559 -9.08576933 15.83307616 -12.7691803 13.09117126 C-14.66210938 10.40405273 -14.66210938 10.40405273 -14.72460938 6.77905273 C-13.66210938 3.40405273 -13.66210938 3.40405273 -12.19958496 1.71836853 C-8.24093922 -0.33205932 -4.39508709 -0.02141806 0 0 Z " fill="#A3AFC5" transform="translate(127.662109375,347.595947265625)"/>
<path d="M0 0 C0.98902313 -0.00700928 1.97804626 -0.01401855 2.99703979 -0.02124023 C6.26784298 -0.03885228 9.53778169 -0.02718567 12.80859375 -0.01367188 C15.0801612 -0.01636585 17.35172752 -0.02024749 19.62329102 -0.02526855 C24.38471452 -0.03116797 29.14583793 -0.02258607 33.90722656 -0.00390625 C40.01418443 0.01888318 46.12043916 0.00576253 52.22737122 -0.01819611 C56.91822621 -0.03264188 61.60891418 -0.02805362 66.29977417 -0.01768494 C68.5516671 -0.01501429 70.80357514 -0.01829923 73.05545044 -0.02760315 C76.2014388 -0.0377483 79.34628438 -0.02229524 82.4921875 0 C83.42529755 -0.00809692 84.35840759 -0.01619385 85.3197937 -0.02453613 C91.60626619 0.05810973 91.60626619 0.05810973 94.82055664 2.36633301 C96.80745973 5.36472256 96.89424045 6.98877941 96.24609375 10.51757812 C94.23839345 13.27500878 92.63197134 15.20498143 89.20376587 15.97824287 C86.64961967 16.1625407 84.13880761 16.18161017 81.578125 16.14868164 C80.61006927 16.15583694 79.64201355 16.16299225 78.6446228 16.17036438 C75.44879787 16.18725526 72.25437489 16.16784575 69.05859375 16.14648438 C66.83569218 16.14731303 64.61279067 16.14977229 62.38989258 16.15379333 C57.73272238 16.15665162 53.07603303 16.14194656 48.41894531 16.11450195 C42.44996818 16.08041967 36.48185093 16.0864374 30.51283264 16.10516453 C25.92314491 16.11573416 21.33365718 16.10679691 16.74398804 16.09177971 C14.54316807 16.08659721 12.34232722 16.08708051 10.14151001 16.09332466 C7.06523745 16.09877623 3.99019491 16.07840257 0.9140625 16.05102539 C0.00482025 16.05755127 -0.904422 16.06407715 -1.84121704 16.07080078 C-5.95089786 16.00862534 -8.22003445 15.83322808 -11.82299805 13.70298767 C-13.75390625 11.51757812 -13.75390625 11.51757812 -14.31640625 8.01757812 C-13.75390625 4.51757812 -13.75390625 4.51757812 -12.32836914 2.33117676 C-8.39094262 -0.44257127 -4.70772377 -0.04085057 0 0 Z " fill="#A3AFC5" transform="translate(258.75390625,384.482421875)"/>
<path d="M0 0 C0.96805573 -0.00861557 1.93611145 -0.01723114 2.9335022 -0.02610779 C6.12911822 -0.04878564 9.32385868 -0.04202573 12.51953125 -0.03295898 C14.7424343 -0.03819349 16.96533511 -0.04446933 19.18823242 -0.05174255 C23.84532123 -0.06214996 28.50210453 -0.0575798 33.15917969 -0.04296875 C39.12824036 -0.02577476 45.09633902 -0.04928281 51.06529236 -0.08445835 C55.65497216 -0.1064135 60.24442107 -0.10499546 64.83413696 -0.09669304 C67.03497371 -0.09587261 69.23582725 -0.10275347 71.43661499 -0.11746407 C74.51303351 -0.13487593 77.58771407 -0.12039483 80.6640625 -0.09765625 C82.02792587 -0.11519455 82.02792587 -0.11519455 83.41934204 -0.13308716 C87.86293103 -0.06623247 89.77190212 0.11611197 93.4362793 2.84632874 C95.33203125 5.53344727 95.33203125 5.53344727 95.33203125 9.15844727 C94.34702441 12.48284534 93.97183103 13.49459778 91.33203125 15.53344727 C89.38108921 15.913764 89.38108921 15.913764 87.12586975 15.92112732 C85.84098915 15.93598427 85.84098915 15.93598427 84.53015137 15.95114136 C83.59344604 15.94663971 82.65674072 15.94213806 81.69165039 15.9375 C80.70277328 15.94436325 79.71389618 15.9512265 78.6950531 15.95829773 C75.41895275 15.9766324 72.14332825 15.97271861 68.8671875 15.96704102 C66.59419091 15.97159967 64.3211957 15.9769043 62.04820251 15.98292542 C57.2808574 15.99186969 52.51367969 15.98941844 47.74633789 15.97949219 C41.63152948 15.9680022 35.51729849 15.98820826 29.40256596 16.01740932 C24.7074363 16.03573986 20.0124458 16.0354851 15.31728935 16.0297718 C13.06259794 16.0296182 10.80789732 16.03569485 8.55323982 16.04806328 C5.40239179 16.06291133 2.25262056 16.05234108 -0.89819336 16.03515625 C-1.83287445 16.04482422 -2.76755554 16.05449219 -3.7305603 16.06445312 C-10.01567369 15.99253298 -10.01567369 15.99253298 -13.24342346 13.72084045 C-15.3629014 10.46637628 -15.27709851 8.32358797 -14.66796875 4.53344727 C-10.37496147 -0.32539536 -6.04673643 -0.04339907 0 0 Z " fill="#A3AFC5" transform="translate(259.66796875,91.466552734375)"/>
<path d="M0 0 C1.4664949 -0.01051392 1.4664949 -0.01051392 2.96261597 -0.02124023 C6.19615031 -0.03885296 9.42881018 -0.02718456 12.66235352 -0.01367188 C14.9091051 -0.01636605 17.15585556 -0.02024785 19.40260315 -0.02526855 C24.11275324 -0.03116825 28.8226 -0.02258602 33.53271484 -0.00390625 C39.57007497 0.0188701 45.60672334 0.00577102 51.64405727 -0.01819611 C56.28434101 -0.03265234 60.92445612 -0.02804858 65.56474495 -0.01768494 C67.7906916 -0.01501651 70.01665355 -0.01829147 72.24258232 -0.02760315 C75.3548421 -0.03776404 78.46595092 -0.02227256 81.578125 0 C82.95837105 -0.01214539 82.95837105 -0.01214539 84.36650085 -0.02453613 C88.52544042 0.03059219 90.79472014 0.18113413 94.42567444 2.36633301 C96.35375977 4.51757812 96.35375977 4.51757812 96.97875977 7.45507812 C96.1208857 11.65866106 94.75851028 12.91513519 91.35375977 15.51757812 C88.09472949 16.24605085 84.90653998 16.19097464 81.578125 16.14868164 C80.59870941 16.15583694 79.61929382 16.16299225 78.61019897 16.17036438 C75.37710747 16.18725488 72.14540171 16.16784732 68.91235352 16.14648438 C66.66463608 16.14731297 64.4169187 16.14977199 62.16920471 16.15379333 C57.46076193 16.1566515 52.75279479 16.14194644 48.04443359 16.11450195 C42.00585906 16.08040009 35.96813404 16.08644402 29.9295187 16.10516453 C25.28925989 16.11572644 20.6491992 16.10680428 16.00895882 16.09177971 C13.78219249 16.08659284 11.55540552 16.08708579 9.32864189 16.09332466 C6.21864093 16.09876769 3.10986179 16.07843077 0 16.05102539 C-0.92218826 16.05755127 -1.84437653 16.06407715 -2.79450989 16.07080078 C-8.99403217 15.9777866 -8.99403217 15.9777866 -12.21788025 13.70298767 C-14.32477253 10.4794148 -14.18362903 8.27929969 -13.64624023 4.51757812 C-10.22563738 -0.71836438 -5.66918418 -0.04977612 0 0 Z " fill="#A3AFC5" transform="translate(258.646240234375,347.482421875)"/>
<path d="M0 0 C0.85658707 -0.00990463 1.71317413 -0.01980927 2.59571838 -0.03001404 C3.53242371 -0.02551239 4.46912903 -0.02101074 5.43421936 -0.01637268 C6.42309647 -0.02323593 7.41197357 -0.03009918 8.43081665 -0.03717041 C11.706917 -0.05550508 14.9825415 -0.05159129 18.25868225 -0.0459137 C20.53167884 -0.05047236 22.80467405 -0.05577698 25.07766724 -0.0617981 C29.84501235 -0.07074237 34.61219006 -0.06829112 39.37953186 -0.05836487 C45.49434028 -0.04687488 51.60857126 -0.06708094 57.72330379 -0.09628201 C62.41843345 -0.11461254 67.11342395 -0.11435778 71.8085804 -0.10864449 C74.06327181 -0.10849088 76.31797243 -0.11456753 78.57262993 -0.12693596 C81.72347796 -0.14178402 84.87324919 -0.13121376 88.02406311 -0.11402893 C88.9587442 -0.1236969 89.89342529 -0.13336487 90.85643005 -0.14332581 C97.14154344 -0.07140566 97.14154344 -0.07140566 100.36929321 2.20028687 C102.48877115 5.45475104 102.40296826 7.59753935 101.7938385 11.38768005 C98.93830076 14.61958897 96.61961622 15.64050244 92.42982483 15.90234375 C90.66203102 15.92908874 88.89382033 15.93381638 87.12586975 15.92112732 C86.15781403 15.92974289 85.1897583 15.93835846 84.19236755 15.94723511 C80.99675153 15.96991296 77.80201108 15.96315305 74.6063385 15.9540863 C72.38343546 15.95932081 70.16053464 15.96559665 67.93763733 15.97286987 C63.28054853 15.98327728 58.62376522 15.97870712 53.96669006 15.96409607 C47.99762939 15.94690208 42.02953073 15.97041013 36.06057739 16.00558567 C31.47089759 16.02754082 26.88144868 16.02612278 22.29173279 16.01782036 C20.09089604 16.01699993 17.8900425 16.02388079 15.68925476 16.03859138 C12.61283625 16.05600325 9.53815568 16.04152214 6.46180725 16.01878357 C5.552565 16.03047577 4.64332275 16.04216797 3.70652771 16.05421448 C-0.73706128 15.98735979 -2.64603237 15.80501535 -6.31040955 13.07479858 C-8.2061615 10.38768005 -8.2061615 10.38768005 -8.2061615 6.76268005 C-6.76066697 1.88413602 -5.15306707 0.01682483 0 0 Z " fill="#A3AFC5" transform="translate(121.20616149902344,384.61231994628906)"/>
<path d="M0 0 C0.97766327 -0.00861557 1.95532654 -0.01723114 2.96261597 -0.02610779 C6.19613073 -0.04882046 9.4287825 -0.0420187 12.66235352 -0.03295898 C14.90910602 -0.0381924 17.15585632 -0.04446784 19.40260315 -0.05174255 C24.1127455 -0.06215674 28.82258594 -0.05757078 33.53271484 -0.04296875 C39.57018173 -0.0257845 45.60669664 -0.04926728 51.64405727 -0.08445835 C56.28435072 -0.10641474 60.9244158 -0.10499498 65.56474495 -0.09669304 C67.79070136 -0.09587247 70.01667436 -0.10275598 72.24258232 -0.11746407 C75.35502562 -0.13487566 78.46575097 -0.12039428 81.578125 -0.09765625 C82.49828903 -0.10934845 83.41845306 -0.12104065 84.36650085 -0.13308716 C88.83439883 -0.06664559 90.77741972 0.10442384 94.46083069 2.84632874 C96.35375977 5.53344727 96.35375977 5.53344727 96.41625977 9.15844727 C95.35375977 12.53344727 95.35375977 12.53344727 93.89123535 14.21913147 C89.93258962 16.26955932 86.08673749 15.95891806 81.69165039 15.9375 C80.71238083 15.94436325 79.73311127 15.9512265 78.72416687 15.95829773 C75.48596718 15.9766049 72.24825011 15.97272291 69.01000977 15.96704102 C66.76086265 15.9716006 64.51171693 15.9769055 62.26257324 15.98292542 C57.54828227 15.99186399 52.83416064 15.98942443 48.11987305 15.97949219 C42.0734723 15.96799578 36.02765496 15.98822097 29.98133087 16.01740932 C25.33681516 16.03573871 20.69244013 16.03548545 16.04789734 16.0297718 C13.81832561 16.02961822 11.58874457 16.0356929 9.35920715 16.04806328 C6.24438657 16.06291128 3.13065521 16.05234165 0.01586914 16.03515625 C-0.90789017 16.04482422 -1.83164948 16.05449219 -2.78340149 16.06445312 C-8.99463089 15.99255358 -8.99463089 15.99255358 -12.21887207 13.72084045 C-14.32343455 10.49566999 -14.18368234 8.295542 -13.64624023 4.53344727 C-10.22637157 -0.69899672 -5.66820997 -0.04011117 0 0 Z " fill="#A3AFC5" transform="translate(258.646240234375,128.466552734375)"/>
<path d="M0 0 C3.3 0 6.6 0 10 0 C10.04932541 7.22655228 10.08568408 14.45300724 10.10986328 21.6796875 C10.11993983 24.13966579 10.13360131 26.59963206 10.15087891 29.05957031 C10.17505461 32.58922285 10.1864664 36.11871747 10.1953125 39.6484375 C10.20563507 40.75367767 10.21595764 41.85891785 10.22659302 42.99765015 C10.22674408 44.01855743 10.22689514 45.03946472 10.22705078 46.09130859 C10.231492 46.99287689 10.23593323 47.89444519 10.24050903 48.82333374 C10 51 10 51 8 53 C5 53.3125 5 53.3125 2 53 C-0.17585822 49.73621267 -0.24605016 48.84095685 -0.22705078 45.06958008 C-0.22689972 44.06876907 -0.22674866 43.06795807 -0.22659302 42.03681946 C-0.21627045 40.95861435 -0.20594788 39.88040924 -0.1953125 38.76953125 C-0.1924826 37.66397385 -0.18965271 36.55841644 -0.18673706 35.4193573 C-0.17553002 31.88362872 -0.15042427 28.3481522 -0.125 24.8125 C-0.11497089 22.41732136 -0.10584492 20.02213876 -0.09765625 17.62695312 C-0.07558893 11.75120476 -0.0410553 5.87564514 0 0 Z " fill="#E9EDF0" transform="translate(139,54)"/>
</svg>
